<svg width="15" height="15" viewBox="0 0 15 15" fill="none" xmlns="http://www.w3.org/2000/svg">
<path d="M10.8604 0H4.13934C1.85691 0 0 1.857 0 4.13943V10.8605C0 13.143 1.85691 14.9999 4.13934 14.9999H10.8604C13.143 14.9999 14.9999 13.1429 14.9999 10.8605V4.13943C15 1.857 13.143 0 10.8604 0ZM13.6691 10.8605C13.6691 12.4092 12.4092 13.669 10.8605 13.669H4.13934C2.59075 13.6691 1.33086 12.4092 1.33086 10.8605V4.13943C1.33086 2.59084 2.59075 1.33086 4.13934 1.33086H10.8604C12.4091 1.33086 13.669 2.59084 13.669 4.13943V10.8605H13.6691Z" fill="#D7B56D"/>
<path d="M7.49986 3.63501C5.36862 3.63501 3.63477 5.36886 3.63477 7.50011C3.63477 9.63126 5.36862 11.365 7.49986 11.365C9.63111 11.365 11.365 9.63126 11.365 7.50011C11.365 5.36886 9.63111 3.63501 7.49986 3.63501ZM7.49986 10.0341C6.10254 10.0341 4.96563 8.89734 4.96563 7.50002C4.96563 6.10261 6.10245 4.96579 7.49986 4.96579C8.89727 4.96579 10.0341 6.10261 10.0341 7.50002C10.0341 8.89734 8.89718 10.0341 7.49986 10.0341Z" fill="#D7B56D"/>
<path d="M11.527 2.50659C11.2706 2.50659 11.0187 2.6104 10.8376 2.79228C10.6556 2.97328 10.551 3.22526 10.551 3.48256C10.551 3.73906 10.6557 3.99095 10.8376 4.17283C11.0186 4.35383 11.2706 4.45853 11.527 4.45853C11.7843 4.45853 12.0354 4.35383 12.2173 4.17283C12.3992 3.99095 12.503 3.73897 12.503 3.48256C12.503 3.22526 12.3992 2.97328 12.2173 2.79228C12.0363 2.6104 11.7843 2.50659 11.527 2.50659Z" fill="#D7B56D"/>
</svg>
