<svg width="15" height="15" viewBox="0 0 15 15" fill="none" xmlns="http://www.w3.org/2000/svg">
<path d="M13.5001 13.5V9.10504C13.5001 6.94504 13.0351 5.29504 10.5151 5.29504C9.30012 5.29504 8.49012 5.95504 8.16012 6.58504H8.13012V5.49004H5.74512V13.5H8.23512V9.52504C8.23512 8.47504 8.43012 7.47004 9.72012 7.47004C10.9951 7.47004 11.0101 8.65504 11.0101 9.58504V13.485H13.5001V13.5Z" fill="#D7B56D"/>
<path d="M1.69507 5.48999H4.18507V13.5H1.69507V5.48999Z" fill="#D7B56D"/>
<path d="M2.94 1.5C2.145 1.5 1.5 2.145 1.5 2.94C1.5 3.735 2.145 4.395 2.94 4.395C3.735 4.395 4.38 3.735 4.38 2.94C4.38 2.145 3.735 1.5 2.94 1.5Z" fill="#D7B56D"/>
</svg>
